HIERARCHY
ROOT Hips
{
	OFFSET 55.310501 45.591206 43.872097
	CHANNELS 6 Xposition Yposition Zposition Zrotation Xrotation Yrotation
	JOINT Chest
	{
		OFFSET -0.153500 1.163101 7.852402
		CHANNELS 6 Xposition Yposition Zposition Zrotation Xrotation Yrotation
		JOINT Chest2
		{
			OFFSET 0.000000 0.000000 3.343300
			CHANNELS 6 Xposition Yposition Zposition Zrotation Xrotation Yrotation
			JOINT Neck
			{
				OFFSET 0.000000 0.000000 7.785500
				CHANNELS 6 Xposition Yposition Zposition Zrotation Xrotation Yrotation
				JOINT Head
				{
					OFFSET 0.000000 0.000000 2.173901
					CHANNELS 6 Xposition Yposition Zposition Zrotation Xrotation Yrotation
					End Site
					{
						OFFSET 0.000000 0.000000 10.528198
					}
				}
			}
			JOINT LeftCollar
			{
				OFFSET 2.676300 -1.652401 4.938301
				CHANNELS 6 Xposition Yposition Zposition Zrotation Xrotation Yrotation
				JOINT LeftShoulder
				{
					OFFSET 4.299000 0.000000 0.000000
					CHANNELS 6 Xposition Yposition Zposition Zrotation Xrotation Yrotation
					JOINT LeftElbow
					{
						OFFSET 0.000000 0.000000 -10.245102
						CHANNELS 6 Xposition Yposition Zposition Zrotation Xrotation Yrotation
						JOINT LeftWrist
						{
							OFFSET 0.000000 0.000000 -12.703300
							CHANNELS 6 Xposition Yposition Zposition Zrotation Xrotation Yrotation
							End Site
							{
								OFFSET 0.000000 0.000000 -2.173901
							}
						}
					}
				}
			}
			JOINT RightCollar
			{
				OFFSET -2.534599 -1.686401 5.195000
				CHANNELS 6 Xposition Yposition Zposition Zrotation Xrotation Yrotation
				JOINT RightShoulder
				{
					OFFSET -4.144100 0.000000 0.000000
					CHANNELS 6 Xposition Yposition Zposition Zrotation Xrotation Yrotation
					JOINT RightElbow
					{
						OFFSET 0.000000 0.000000 -10.116501
						CHANNELS 6 Xposition Yposition Zposition Zrotation Xrotation Yrotation
						JOINT RightWrist
						{
							OFFSET 0.000000 0.000000 -12.937801
							CHANNELS 6 Xposition Yposition Zposition Zrotation Xrotation Yrotation
							End Site
							{
								OFFSET 0.000000 0.000000 -2.173901
							}
						}
					}
				}
			}
		}
	}
	JOINT LeftHip
	{
		OFFSET 2.175598 0.064499 -2.662899
		CHANNELS 6 Xposition Yposition Zposition Zrotation Xrotation Yrotation
		JOINT LeftKnee
		{
			OFFSET 0.000000 -0.000004 -18.585800
			CHANNELS 6 Xposition Yposition Zposition Zrotation Xrotation Yrotation
			JOINT LeftAnkle
			{
				OFFSET 0.000000 0.000000 -18.979500
				CHANNELS 6 Xposition Yposition Zposition Zrotation Xrotation Yrotation
				End Site
				{
					OFFSET 0.000000 -9.264000 0.000000
				}
			}
		}
	}
	JOINT RightHip
	{
		OFFSET -2.092400 -0.058102 -2.581200
		CHANNELS 6 Xposition Yposition Zposition Zrotation Xrotation Yrotation
		JOINT RightKnee
		{
			OFFSET 0.000000 -0.000004 -18.665001
			CHANNELS 6 Xposition Yposition Zposition Zrotation Xrotation Yrotation
			JOINT RightAnkle
			{
				OFFSET 0.000000 0.000000 -18.566601
				CHANNELS 6 Xposition Yposition Zposition Zrotation Xrotation Yrotation
				End Site
				{
					OFFSET 0.000000 -8.497601 0.000000
				}
			}
		}
	}
}
MOTION
Frames: 7
Frame Time: 0.041667
79.225899 40.780003 36.685593 1017.934456 31.768644 9.279751 -0.153495 1.163106 7.852400 7.286179 9.265741 10.420599 0.000005 0.000012 3.343312 -3.707381 -8.554252 -0.021161 -0.000007 0.000006 7.785489 56.866871 -12.192950 7.166990 -0.000015 0.000016 2.173903 8.568272 -8.219763 9.652307 2.676293 -1.652402 4.938299 5.138351 3.022568 13.656147 4.298994 -0.000010 -0.000001 8.969038 30.466691 -89.473115 -0.000013 0.000007 -10.245106 62.243808 641.270178 65.621814 -0.000013 0.000010 -12.703289 1319.622382 -164.661436 603.777904 -2.534599 -1.686396 5.194998 7.797938 11.507060 12.725235 -4.144102 -0.000005 -0.000010 -5.033680 7.145794 97.159216 0.000005 0.000000 -10.116491 -72.062826 -30.301677 -81.230846 0.000002 0.000004 -12.937805 -371.585213 -401.720663 -58.493986 2.175610 0.064511 -2.662904 -618.495377 -38.574064 82.103908 -0.000001 0.000000 -18.585808 132.056503 -220.794908 -164.369896 -0.000003 -0.000004 -18.979511 723.837275 -5.621088 -125.799490 -2.092395 -0.058098 -2.581205 294.708374 -41.526939 -53.039025 0.000004 -0.000005 -18.664997 -1372.424553 61.036367 -59.850448 0.000009 -0.000001 -18.566597 1053.898298 -15.819616 -14.859833
79.275497 40.701691 36.723892 1017.531748 31.607961 9.194075 -0.153499 1.163106 7.852407 7.240664 9.141757 10.150068 0.000006 0.000013 3.343299 -3.483428 -8.546570 0.035117 0.000007 -0.000007 7.785502 56.538824 -12.034904 7.210512 -0.000005 0.000004 2.173900 8.508981 -8.189942 9.577184 2.676301 -1.652400 4.938307 4.567768 3.336329 13.781300 4.299003 -0.000002 0.000001 9.047929 29.743124 -89.830682 -0.000012 -0.000007 -10.245111 62.612126 641.559013 65.990460 -0.000007 0.000005 -12.703289 1318.848549 -164.622722 603.746539 -2.534596 -1.686399 5.195006 7.437244 11.396930 12.514236 -4.144098 0.000004 -0.000002 -4.994701 6.748653 97.222729 0.000008 -0.000001 -10.116490 -71.519546 -30.237405 -80.942038 -0.000003 0.000000 -12.937797 -371.145950 -401.596081 -57.663544 2.175592 0.064496 -2.662897 -618.546740 -38.460891 81.852912 0.000001 -0.000002 -18.585815 132.357236 -220.862377 -164.671476 0.000000 0.000002 -18.979511 723.686410 -5.531036 -125.826196 -2.092407 -0.058105 -2.581198 294.906695 -41.575303 -52.792632 0.000020 -0.000002 -18.664999 -1371.751369 60.756889 -60.144228 0.000007 -0.000009 -18.566601 1053.799834 -15.806595 -15.104514
79.327805 40.620697 36.763397 1017.115708 31.409714 9.097700 -0.153498 1.163101 7.852405 7.104831 9.036467 9.906378 0.000009 -0.000003 3.343308 -3.475274 -8.561305 0.039781 0.000003 -0.000007 7.785491 56.443935 -11.880142 7.210802 0.000001 -0.000002 2.173901 8.389971 -8.162496 9.508640 2.676299 -1.652404 4.938295 4.426056 3.550292 13.923665 4.298998 -0.000003 -0.000008 8.983753 29.094533 -90.350692 -0.000000 0.000007 -10.245098 62.831969 641.869759 66.226102 -0.000012 0.000003 -12.703303 1318.090343 -164.554967 603.712225 -2.534595 -1.686405 5.195000 7.354851 11.326497 12.327177 -4.144097 0.000000 0.000003 -4.957482 6.362236 97.147160 0.000003 -0.000001 -10.116492 -71.039732 -30.113713 -80.545716 -0.000003 -0.000010 -12.937799 -370.702971 -401.695528 -57.508847 2.175603 0.064505 -2.662893 -618.649520 -38.428881 81.557356 0.000006 -0.000005 -18.585800 132.664704 -220.907961 -164.977100 -0.000010 -0.000008 -18.979517 723.614939 -5.395622 -125.860142 -2.092399 -0.058099 -2.581198 295.116218 -41.582902 -52.511840 0.000007 -0.000001 -18.665007 -1371.022561 60.450746 -60.425461 -0.000002 -0.000005 -18.566595 1053.699403 -15.776069 -15.384680
79.382111 40.534599 36.805595 1016.724475 31.168294 8.978763 -0.153496 1.163105 7.852406 6.901440 8.953485 9.638025 -0.000001 0.000008 3.343304 -3.439761 -8.581675 0.041152 -0.000002 0.000001 7.785506 56.355778 -11.692263 7.169498 0.000006 0.000003 2.173904 8.357489 -8.145829 9.557330 2.676294 -1.652398 4.938313 4.339292 3.745421 13.863957 4.298996 -0.000002 -0.000008 8.679375 28.492563 -90.706989 -0.000008 0.000003 -10.245110 62.897300 642.180943 66.271386 -0.000010 0.000007 -12.703300 1317.256404 -164.464385 603.654305 -2.534594 -1.686388 5.195004 7.227307 11.250535 12.191512 -4.144101 -0.000009 0.000003 -4.877119 6.130031 96.923991 0.000007 0.000007 -10.116495 -70.927963 -27.893897 -80.143937 -0.000000 0.000004 -12.937800 -368.082829 -401.930705 -57.367988 2.175604 0.064501 -2.662893 -618.857814 -38.485565 81.195028 -0.000003 0.000001 -18.585794 132.945193 -220.975280 -165.266645 -0.000005 -0.000002 -18.979504 723.634063 -5.286536 -125.837793 -2.092398 -0.058105 -2.581190 295.338500 -41.565065 -52.156824 0.000004 -0.000005 -18.665005 -1370.326100 60.141762 -60.662448 0.000007 -0.000002 -18.566595 1053.631320 -15.708950 -15.639796
79.439011 40.443897 36.850391 1016.358267 30.899926 8.816565 -0.153497 1.163107 7.852406 6.598881 8.876511 9.393004 0.000004 -0.000001 3.343304 -3.375581 -8.608361 0.042096 0.000000 0.000010 7.785497 56.297445 -11.499645 7.058409 0.000003 0.000008 2.173904 8.346813 -8.075163 9.631580 2.676295 -1.652401 4.938302 4.331687 3.813258 13.884764 4.299003 -0.000003 -0.000008 8.303884 27.941991 -91.240959 -0.000002 -0.000001 -10.245109 62.692476 642.496716 66.066603 -0.000007 -0.000004 -12.703300 1316.341378 -164.330390 603.573654 -2.534593 -1.686385 5.194999 7.136222 11.160038 12.010278 -4.144094 -0.000004 -0.000003 -4.870481 6.109423 96.634971 0.000009 0.000007 -10.116505 -70.537699 -29.251846 -79.378621 0.000002 -0.000006 -12.937804 -368.983703 -401.920815 -57.148405 2.175593 0.064499 -2.662890 -619.137087 -38.539001 80.796978 0.000000 0.000001 -18.585806 133.070609 -221.047926 -165.477602 -0.000010 -0.000005 -18.979509 723.760668 -5.190544 -125.757170 -2.092395 -0.058105 -2.581190 295.669409 -41.616851 -51.673957 0.000008 -0.000002 -18.664999 -1369.724825 59.776702 -60.877319 0.000005 0.000012 -18.566595 1053.536134 -15.638727 -15.913902
79.501511 40.346203 36.897388 1015.962116 30.592264 8.631250 -0.153503 1.163106 7.852405 6.217350 8.797045 9.175601 0.000009 0.000010 3.343296 -3.267378 -8.632746 0.043402 -0.000003 -0.000004 7.785507 56.247086 -11.321474 6.895547 -0.000000 0.000007 2.173904 8.296455 -8.012693 9.715831 2.676298 -1.652400 4.938308 4.383123 3.830690 13.740403 4.299002 0.000001 -0.000003 7.710255 27.415312 -91.628176 0.000000 0.000007 -10.245108 62.023008 642.733478 65.428438 -0.000006 0.000004 -12.703299 1315.467441 -164.172039 603.432842 -2.534602 -1.686402 5.195012 7.112072 11.114042 11.789233 -4.144098 -0.000002 0.000002 -4.911496 6.057467 96.262596 0.000003 0.000008 -10.116503 -70.002274 -30.727761 -78.398571 -0.000006 -0.000004 -12.937804 -370.045388 -401.917482 -56.868831 2.175600 0.064507 -2.662891 -619.547881 -38.734211 80.296100 -0.000011 0.000002 -18.585814 133.215572 -221.081803 -165.655214 -0.000001 0.000003 -18.979519 724.009177 -5.108453 -125.660864 -2.092403 -0.058102 -2.581196 295.965894 -41.608812 -51.152697 -0.000000 -0.000002 -18.665001 -1368.927605 59.301171 -61.190551 0.000003 -0.000002 -18.566593 1053.374833 -15.585921 -16.194544
79.568298 40.242195 36.945190 1015.514493 30.261406 8.446705 -0.153498 1.163096 7.852399 5.854381 8.684236 8.942143 0.000006 -0.000000 3.343299 -3.144913 -8.669925 0.046139 0.000006 0.000009 7.785500 56.195723 -11.103232 6.658284 -0.000001 0.000005 2.173910 8.260812 -7.925688 9.827963 2.676298 -1.652402 4.938306 4.107283 3.633118 14.565471 4.299003 -0.000000 -0.000010 7.826701 26.986052 -93.129889 -0.000011 -0.000003 -10.245106 61.268689 643.006084 64.630098 -0.000008 0.000010 -12.703303 1314.508046 -163.980794 603.250941 -2.534596 -1.686405 5.195007 7.304757 11.226970 11.520934 -4.144100 -0.000001 -0.000001 -5.235890 5.802211 95.758494 -0.000002 0.000009 -10.116499 -69.809519 -29.223897 -77.592144 0.000000 -0.000004 -12.937792 -368.025291 -402.101569 -56.547761 2.175598 0.064491 -2.662894 -619.977036 -38.944735 79.780066 -0.000015 -0.000004 -18.585802 133.115510 -221.107717 -165.727164 -0.000012 -0.000004 -18.979515 724.480788 -5.060100 -125.586265 -2.092395 -0.058113 -2.581194 296.364504 -41.609526 -50.543311 0.000005 -0.000004 -18.664999 -1368.138800 58.695115 -61.486387 0.000004 -0.000002 -18.566595 1053.130039 -15.521450 -16.515795
